<?xml version="1.0" encoding="utf-8"?>
<!-- Generator: Adobe Illustrator 22.0.0, SVG Export Plug-In . SVG Version: 6.00 Build 0)  -->
<svg version="1.1" id="Layer_1" xmlns="http://www.w3.org/2000/svg" xmlns:xlink="http://www.w3.org/1999/xlink" x="0px" y="0px"
	 viewBox="0 0 1000 240" style="enable-background:new 0 0 1000 240;" xml:space="preserve">
<style type="text/css">
	.st0{fill:#FFFFFF;}
</style>
<g>
	<g>
		<path d="M23.1,56.2h15.4l-0.3,17.2c14.6-15.9,36.7-22.5,55.4-17.9l-3.1,17.7c-29.8-5.1-51.8,7.4-55.9,30L20,186.8H0L23.1,56.2z"/>
		<path d="M189.8,146.3c-6.4,27.4-27.4,43-59.5,43c-33.3,0-52.6-16.9-47.2-48.9l6.7-38.1c5.9-32.3,28.7-48.6,61.6-48.6
			c32.3,0,52.3,16.4,46.4,48.6l-4.4,24.8h-88l-2.6,14.6c-3.3,19.2,6.7,30.5,29,30.5c21.5,0,34.6-10.8,38.2-25.9H189.8z M108.2,111.3
			h68L178,101c3.8-20.5-7.7-30.2-28.2-30.2c-20.8,0-36.2,10-39.8,30.2L108.2,111.3z"/>
		<path d="M214.4,102.3c5.6-31.7,25.6-48.6,55.7-48.6c18.5,0,32.6,6.4,39.5,18.7l5.6-16.1h15.4L298.5,238h-20l11.3-64
			c-10.3,10.2-24.6,15.4-41,15.4c-30.3,0-46.2-20-40.5-51.7L214.4,102.3z M227.7,138.9c-3.6,20,7.4,33.3,26.9,33.3
			c21,0,38-13.1,41.8-34.6l5.9-33.8c3.6-20.2-9.7-33-30.8-33c-20.8,0-33.6,10.8-37.2,30.2L227.7,138.9z"/>
		<path d="M362.4,7.6h71.3c34.9,0,51.3,16.9,48.2,48.1c-2.3,32.5-19,52.5-44.4,59.9l23.3,71.2h-22.3l-22.1-67.8h-3.6h-49l-11.8,67.8
			h-21.3L362.4,7.6z M367.3,100.5h48c22.1,0,41.5-11,44.6-41.2c2.8-22.3-8-33.3-30-33.3h-49.5L367.3,100.5z"/>
		<path d="M589.1,146.3c-6.4,27.4-27.4,43-59.5,43c-33.3,0-52.6-16.9-47.2-48.9l6.7-38.1c5.9-32.3,28.7-48.6,61.6-48.6
			c32.3,0,52.3,16.4,46.4,48.6l-4.4,24.8h-88l-2.6,14.6c-3.3,19.2,6.7,30.5,29,30.5c21.5,0,34.6-10.8,38.2-25.9H589.1z M507.5,111.3
			h68l1.8-10.2c3.8-20.5-7.7-30.2-28.2-30.2c-20.8,0-36.2,10-39.8,30.2L507.5,111.3z"/>
		<path d="M673,132l-26.2-5.4c-21.3-4.4-31.5-15.4-30-32c1.8-25.3,21.8-41,58-41c33.1,0,48.2,13.3,43.1,41.7h-19.7
			C701.2,78,693.2,70,672.2,70c-21.3,0-33.6,7.9-35.4,21c-1.3,10.8,4.9,16.4,17.7,18.9l26.2,5.4c21.5,4.4,32.1,15.4,30.3,31.7
			c-1.8,26.6-24.4,42.2-60.3,42.2c-33.3,0-51-13.3-46.2-42h20c-3.1,17.7,7.4,25.3,28.7,25.3c21.8,0,35.6-7.7,37.4-21.8
			C692.2,140.4,686,134.6,673,132z"/>
	</g>
	<g>
		<g>
			<polygon class="st0" points="774.6,5 994.2,5 968.5,182.9 884.1,182.9 841.2,230.4 824.4,181.7 745.7,181.7 			"/>
			<path d="M839.2,240l-18.4-53.3h-80.9L770.3,0H1000l-27.1,187.9h-86.6L839.2,240z M751.6,176.7h76.3l15.2,44l38.7-42.8h82.3
				L988.4,10H778.8L751.6,176.7z"/>
		</g>
		<g>
			<polygon points="809.5,104.6 802.3,103.5 805.5,83.6 812.6,84.8 			"/>
			<polygon points="822.2,119.9 815.1,118.8 823.1,68.3 830.3,69.5 			"/>
			<polygon points="912.4,116.7 905.3,115.6 912.3,71.5 919.4,72.7 			"/>
			<polygon points="929,107.3 921.8,106.1 925.9,81 933,82.1 			"/>
			<polygon points="833.4,142.6 826.2,141.5 841.6,45.6 848.7,46.8 			"/>
			<polygon points="850.2,132.3 843,131.2 855.1,55.9 862.2,57 			"/>
			<polygon points="895.1,131.2 888.2,130.1 899.9,57 906.8,58.1 			"/>
			<polygon points="860.5,161.2 853.4,160.1 874.7,27 881.8,28.2 			"/>
			<polygon points="876.6,151.5 869.5,150.3 887.6,36.7 894.7,37.9 			"/>
		</g>
	</g>
</g>
</svg>
