<?xml version="1.0" encoding="utf-8"?>
<!-- Generator: Adobe Illustrator 22.0.0, SVG Export Plug-In . SVG Version: 6.00 Build 0)  -->
<svg version="1.1" id="Layer_1" xmlns="http://www.w3.org/2000/svg" xmlns:xlink="http://www.w3.org/1999/xlink" x="0px" y="0px"
	 viewBox="0 0 260.1 240" style="enable-background:new 0 0 260.1 240;" xml:space="preserve">
<style type="text/css">
	.st0{fill:#FFFFFF;}
</style>
<g>
	<g>
		<g>
			<polygon class="st0" points="34.7,5 254.4,5 228.6,182.9 144.2,182.9 101.3,230.4 84.5,181.7 5.9,181.7 			"/>
			<path d="M99.4,240l-18.4-53.3H0L30.5,0h229.7L233,187.9h-86.6L99.4,240z M11.8,176.7h76.3l15.2,44l38.7-42.8h82.3L248.6,10H39
				L11.8,176.7z"/>
		</g>
		<g>
			<polygon points="69.6,104.6 62.5,103.5 65.7,83.6 72.8,84.8 			"/>
			<polygon points="82.3,119.9 75.2,118.8 83.3,68.3 90.4,69.5 			"/>
			<polygon points="172.5,116.7 165.4,115.6 172.4,71.5 179.6,72.7 			"/>
			<polygon points="189.1,107.3 182,106.1 186,81 193.1,82.1 			"/>
			<polygon points="93.5,142.6 86.4,141.5 101.7,45.6 108.8,46.8 			"/>
			<polygon points="110.3,132.3 103.2,131.2 115.2,55.9 122.3,57 			"/>
			<polygon points="155.2,131.2 148.3,130.1 160,57 166.9,58.1 			"/>
			<polygon points="120.7,161.2 113.6,160.1 134.8,27 142,28.2 			"/>
			<polygon points="136.7,151.5 129.6,150.3 147.8,36.7 154.9,37.9 			"/>
		</g>
	</g>
</g>
</svg>
